<?xml version="1.0" encoding="UTF-8" standalone="no"?>
<!DOCTYPE svg PUBLIC "-//W3C//DTD SVG 1.1//EN" "http://www.w3.org/Graphics/SVG/1.1/DTD/svg11.dtd">
<!-- Generated by Microsoft Visio, SVG Export grafana_icon.svg Page-1 -->
<svg xmlns="http://www.w3.org/2000/svg" xmlns:xlink="http://www.w3.org/1999/xlink" xmlns:ev="http://www.w3.org/2001/xml-events"
		xmlns:v="http://schemas.microsoft.com/visio/2003/SVGExtensions/" width="3.11719in" height="3.16797in"
		viewBox="0 0 224.438 228.094" xml:space="preserve" color-interpolation-filters="sRGB" class="st4">
	<v:documentProperties v:langID="5129" v:metric="true" v:viewMarkup="false"/>

	<style type="text/css">
	<![CDATA[
		.st1 {fill:none;stroke:#25b837;stroke-linecap:round;stroke-linejoin:round;stroke-width:6}
		.st2 {fill:none;stroke:#25b837;stroke-linecap:round;stroke-linejoin:round;stroke-width:3}
		.st3 {fill:#92d050;stroke:none;stroke-linecap:butt;stroke-width:2.448}
		.st4 {fill:none;fill-rule:evenodd;font-size:12px;overflow:visible;stroke-linecap:square;stroke-miterlimit:3}
	]]>
	</style>

	<g v:mID="0" v:index="1" v:groupContext="foregroundPage">
		<title>Page-1</title>
		<v:pageProperties v:drawingScale="1" v:pageScale="1" v:drawingUnits="19" v:shadowOffsetX="8.99999"
				v:shadowOffsetY="-8.99999"/>
		<g id="shape2-1" v:mID="2" v:groupContext="shape" transform="translate(3,-16.9688)">
			<title>Sheet.2</title>
			<ellipse cx="104.062" cy="124.031" rx="104.062" ry="104.062" class="st1"/>
		</g>
		<g id="shape3-3" v:mID="3" v:groupContext="shape" transform="translate(14.8125,-1.5)">
			<title>Sheet.3</title>
			<ellipse cx="104.062" cy="124.031" rx="104.062" ry="104.062" class="st2"/>
		</g>
		<g id="group5-5" transform="translate(48.5625,-55.1408)" v:mID="5" v:groupContext="group">
			<title>Sheet.5</title>
			<g id="shape6-6" v:mID="6" v:groupContext="shape">
				<title>Sheet.6</title>
				<path d="M114.82 145.4 C110.49 149.74 101.52 155.07 93.47 159.3 C77.45 167.97 73.52 183.17 76.44 195.86 C75.54 197.68
							 74.83 199.49 74.23 201.2 C73.42 203.62 72.82 206.04 72.42 208.25 C61.34 177.73 61.44 166.66 61.34 164.54
							 C61.24 163.94 61.24 163.33 61.24 162.63 C61.24 161.92 61.24 161.22 61.24 160.41 C61.24 159.61 61.24
							 158.7 61.34 157.79 C61.34 156.89 61.44 155.88 61.44 154.87 C62.24 138.66 65.37 130.6 65.57 129.59 C65.77
							 129.59 62.65 149.94 63.25 156.38 C73.42 150.84 81.68 138.86 76.75 123.15 C74.53 115.99 72.32 107.64
							 72.11 102.3 C55.29 114.38 47.04 125.97 47.44 136.84 C47.84 145.3 53.48 151.45 57.71 154.87 C57.61 155.78
							 57.51 156.68 57.51 157.49 C57.41 158.5 57.31 159.4 57.31 160.21 C57.31 161.12 57.21 161.92 57.21 162.63
							 C57.21 163.33 57.11 164.04 57.21 164.64 C57.21 167.06 57.81 182.37 62.34 196.57 C62.04 196.27 61.74
							 196.07 61.44 195.76 C60.63 195.16 59.83 194.45 59.02 193.75 C58.11 193.04 57.31 192.34 56.3 191.63 C55.39
							 190.93 54.39 190.22 53.38 189.52 C51.37 188.11 49.15 186.6 46.83 185.19 C45.73 184.48 44.52 183.78 43.31
							 183.07 C43.31 183.07 43.31 182.97 43.41 182.97 C43.81 182.27 55.8 189.22 55.9 189.32 C54.69 175.22 45.02
							 160.51 25.08 159 C16.01 158.3 5.74 157.09 0 154.97 C5.84 179.25 15.01 193.65 27.19 197.88 C37.57 201.5
							 47.74 196.77 52.98 193.55 C53.38 193.85 53.78 194.15 54.09 194.45 C54.99 195.16 55.8 195.86 56.6 196.57
							 C57.41 197.27 58.11 197.98 58.82 198.58 C59.52 199.29 60.23 199.89 60.83 200.5 C62.04 201.71 63.05 202.71
							 63.96 203.62 C64.46 204.12 64.86 204.63 65.27 205.03 C67.98 212.28 74.43 227.49 74.43 227.49 C74.43
							 227.49 74.43 227.49 74.43 227.49 C74.53 227.69 74.53 227.89 74.63 228.09 C76.24 227.09 78.06 226.38
							 79.87 226.18 C79.57 225.48 79.37 224.77 79.06 224.17 C78.16 222.05 77.25 219.83 76.34 217.72 C76.24
							 216.91 76.04 216.11 75.94 215.2 C75.74 213.39 75.74 211.37 75.94 209.26 C76.14 207.04 76.65 204.63 77.35
							 202.21 C78.06 199.79 79.06 197.17 80.37 194.66 C81.58 192.14 83.09 189.52 84.8 187.1 C86.11 185.19 87.52
							 183.48 88.93 181.56 C89.14 181.26 89.44 181.36 89.34 181.66 C85.91 186.8 82.49 192.94 79.57 201.91 C84.7
							 202.81 98.1 204.32 107.16 195.66 C116.73 186.8 119.25 169.88 114.82 145.4 Z" class="st3"/>
			</g>
		</g>
	</g>
</svg>
